<svg width="615" height="614" viewBox="0 0 615 614" fill="none" xmlns="http://www.w3.org/2000/svg">
<rect y="394" width="614" height="220" fill="#FADFAD"/>
<rect width="614" height="394" fill="#FAAF45"/>
<mask id="mask0_46_43" style="mask-type:alpha" maskUnits="userSpaceOnUse" x="0" y="0" width="614" height="614">
<rect width="614" height="614" fill="#D9D9D9"/>
</mask>
<g mask="url(#mask0_46_43)">
<path d="M547.107 -39.3611C520.134 -51.8639 462.709 8.98759 411.241 81.1664C332.318 51.6597 262.886 56.1607 202.56 81.305C151.092 9.12614 93.6664 -51.7254 66.6928 -39.2225C39.7192 -26.7197 32.9525 66.701 52.207 188.329C-59.3206 440.201 2.13438 539.96 291.857 653.797C303.948 656.677 310.738 656.791 322.827 653.797C612.55 539.96 673.121 440.062 561.593 188.191C580.848 66.5625 574.081 -26.8583 547.107 -39.3611Z" fill="#FAAF45"/>
<path d="M306.834 336C384.833 336 389.833 407.567 443.832 409.568C497.832 411.57 554.825 347.72 608.331 388.549C610.374 390.108 612.26 391.942 614 394.028C608.28 507.554 516.934 577.551 322.833 653.796C310.732 656.791 303.935 656.678 291.834 653.796C97.6399 577.514 5.90225 507.549 0 393.967C1.72551 391.907 3.59346 390.092 5.61617 388.549C59.1223 347.72 116.115 411.57 170.115 409.568C224.114 407.567 228.834 336 306.834 336Z" fill="#FADFAD"/>
</g>
<path d="M359.643 377C352.348 362.289 330.248 357.741 307.143 357C284.038 357.741 262.326 362.289 255.031 377C247.736 391.711 261.931 419.553 295.531 435C298 446.951 298.031 455.5 288.031 465.5C278.031 475.5 263.531 478.5 248.531 475.5C233.531 472.5 224.531 454.5 214.031 463.5C203.531 472.5 215.28 485.883 237.531 495C259.781 504.117 285.526 499.125 307.143 479.5C328.761 499.125 354.893 504.117 377.143 495C399.394 485.883 411.143 472.5 400.643 463.5C390.143 454.5 381.143 472.5 366.143 475.5C351.143 478.5 336.643 475.5 326.643 465.5C316.643 455.5 316.674 446.951 319.143 435C352.743 419.553 366.938 391.711 359.643 377Z" fill="black"/>
<path d="M604.424 217H307.508H9.86234C4.49469 217 0.143311 221.477 0.143311 227V265.902C0.143311 271.203 4.31955 275.5 9.47119 275.5C13.2513 275.5 16.6576 277.847 18.0967 281.444L30.9827 313.649C41.4785 339.88 66.3229 357 93.8931 357H190.141C214.431 357 236.878 343.676 249.037 322.042L277.445 271.494C279.182 268.403 282.389 266.5 285.859 266.5H307.508H328.867C332.339 266.5 335.547 268.406 337.284 271.5L365.621 322C377.774 343.658 400.233 357 424.539 357H520.442C548.026 357 572.88 339.863 583.367 313.613L596.221 281.438C597.656 277.845 601.057 275.5 604.832 275.5C609.975 275.5 614.143 271.211 614.143 265.92V227C614.143 221.477 609.792 217 604.424 217Z" fill="black"/>
<path d="M45.9895 245H112.75C118.273 245 122.75 249.477 122.75 255V314C122.75 319.523 118.273 324 112.75 324H100.628C67.5293 322.808 53.7288 303.054 36.6949 258.37C34.2267 251.895 39.0603 245 45.9895 245Z" fill="#575757"/>
<ellipse cx="307" cy="382" rx="27" ry="10" fill="#575757"/>
</svg>
