<svg width="672" height="150" viewBox="0 0 672 150" fill="none" xmlns="http://www.w3.org/2000/svg">
<g clip-path="url(#clip0_84_57)">
<path d="M149.756 96.2542H0V150H149.756V96.2542Z" fill="#FADFAD"/>
<path d="M149.756 0H0V96.2541H149.756V0Z" fill="#FAAF45"/>
<mask id="mask0_84_57" style="mask-type:alpha" maskUnits="userSpaceOnUse" x="0" y="0" width="150" height="150">
<path d="M149.756 0H0V150H149.756V0Z" fill="#D9D9D9"/>
</mask>
<g mask="url(#mask0_84_57)">
<path d="M133.441 -9.61597C126.862 -12.6704 112.856 2.19559 100.303 19.8289C81.0532 12.6204 64.1185 13.72 49.4049 19.8627C36.8517 2.22944 22.8455 -12.6366 16.2665 -9.58211C9.68761 -6.52768 8.0372 16.295 12.7334 46.0086C-14.4684 107.541 0.520585 131.912 71.1846 159.722C74.1337 160.426 75.7898 160.454 78.7383 159.722C149.402 131.912 164.176 107.507 136.974 45.9749C141.67 16.2611 140.02 -6.56154 133.441 -9.61597Z" fill="#FAAF45"/>
<path d="M74.8376 82.0847C93.8617 82.0847 95.0812 99.5685 108.252 100.057C121.422 100.546 135.323 84.9479 148.373 94.9224C148.872 95.3033 149.332 95.7513 149.756 96.2609C148.361 123.995 126.081 141.096 78.7398 159.722C75.7883 160.454 74.1305 160.426 71.179 159.722C23.8146 141.087 1.43957 123.994 0 96.246C0.420856 95.7428 0.876454 95.2994 1.3698 94.9224C14.4201 84.9479 28.3207 100.546 41.4915 100.057C54.662 99.5685 55.8132 82.0847 74.8376 82.0847Z" fill="#FADFAD"/>
</g>
<path d="M87.7178 92.1011C85.9385 88.5072 80.5483 87.3961 74.9129 87.2151C69.2775 87.3961 63.9819 88.5072 62.2026 92.1011C60.4234 95.695 63.8856 102.497 72.0807 106.27C72.6829 109.19 72.6905 111.279 70.2514 113.722C67.8124 116.165 64.2758 116.897 60.6173 116.165C56.9587 115.432 54.7636 111.034 52.2026 113.233C49.6417 115.432 52.5073 118.701 57.9344 120.928C63.3612 123.156 69.6405 121.936 74.9129 117.142C80.1856 121.936 86.5592 123.156 91.9861 120.928C97.4131 118.701 100.279 115.432 97.7178 113.233C95.1568 111.034 92.9617 115.432 89.3031 116.165C85.6446 116.897 82.108 116.165 79.669 113.722C77.23 111.279 77.2375 109.19 77.8397 106.27C86.0348 102.497 89.497 95.695 87.7178 92.1011Z" fill="black"/>
<path d="M147.42 53.0129H75.0019H2.40541C1.09622 53.0129 0.0349121 54.1067 0.0349121 55.4559V64.9597C0.0349121 66.2547 1.05351 67.3045 2.31 67.3045C3.23198 67.3045 4.06279 67.8778 4.41379 68.7566L7.55671 76.6243C10.1167 83.0325 16.1763 87.2149 22.9007 87.2149H46.3758C52.3002 87.2149 57.7751 83.9598 60.7407 78.6747L67.6695 66.3258C68.0931 65.5707 68.8753 65.1058 69.7217 65.1058H75.0019H80.2114C81.0583 65.1058 81.8407 65.5714 82.2643 66.3273L89.1758 78.6644C92.14 83.9554 97.6178 87.2149 103.546 87.2149H126.937C133.665 87.2149 139.727 83.0283 142.285 76.6155L145.42 68.7551C145.77 67.8773 146.599 67.3045 147.52 67.3045C148.774 67.3045 149.791 66.2567 149.791 64.9641V55.4559C149.791 54.1067 148.73 53.0129 147.42 53.0129Z" fill="black"/>
<path d="M11.217 59.8535H27.5001C28.8471 59.8535 29.9391 60.9472 29.9391 62.2965V76.7102C29.9391 78.0595 28.8471 79.1532 27.5001 79.1532H24.5435C16.4706 78.862 13.1046 74.0361 8.95003 63.1198C8.34803 61.538 9.52696 59.8535 11.217 59.8535Z" fill="#575757"/>
<path d="M74.8781 95.7654C78.5151 95.7654 81.4635 94.6716 81.4635 93.3224C81.4635 91.9732 78.5151 90.8794 74.8781 90.8794C71.2411 90.8794 68.2927 91.9732 68.2927 93.3224C68.2927 94.6716 71.2411 95.7654 74.8781 95.7654Z" fill="#575757"/>
</g>
<path d="M212.384 109H198.08C196.864 109 195.968 108.744 195.392 108.232C194.88 107.656 194.624 106.76 194.624 105.544V43.336C194.624 42.12 194.88 41.256 195.392 40.744C195.968 40.168 196.864 39.88 198.08 39.88H213.536C214.56 39.88 215.392 40.104 216.032 40.552C216.736 41 217.376 41.736 217.952 42.76L226.592 58.408C226.912 58.984 227.168 59.4 227.36 59.656C227.616 59.912 227.936 60.04 228.32 60.04H229.184C229.568 60.04 229.856 59.912 230.048 59.656C230.304 59.4 230.592 58.984 230.912 58.408L239.456 42.76C240.032 41.736 240.64 41 241.28 40.552C241.984 40.104 242.848 39.88 243.872 39.88H259.424C260.64 39.88 261.504 40.168 262.016 40.744C262.592 41.256 262.88 42.12 262.88 43.336V105.544C262.88 106.76 262.592 107.656 262.016 108.232C261.504 108.744 260.64 109 259.424 109H244.64C243.424 109 242.528 108.744 241.952 108.232C241.44 107.656 241.184 106.76 241.184 105.544V71.752L235.52 82.216C234.944 83.304 234.24 84.104 233.408 84.616C232.64 85.064 231.648 85.288 230.432 85.288H226.592C225.376 85.288 224.352 85.064 223.52 84.616C222.752 84.104 222.08 83.304 221.504 82.216L215.84 71.752V105.544C215.84 106.76 215.552 107.656 214.976 108.232C214.464 108.744 213.6 109 212.384 109ZM297.789 57.16V69.448H304.989C306.653 69.448 307.773 69.032 308.349 68.2C308.925 67.304 309.213 66.216 309.213 64.936V61.672C309.213 60.392 308.925 59.336 308.349 58.504C307.773 57.608 306.653 57.16 304.989 57.16H297.789ZM294.333 109H279.549C278.333 109 277.437 108.744 276.861 108.232C276.349 107.656 276.093 106.76 276.093 105.544V43.336C276.093 42.12 276.349 41.256 276.861 40.744C277.437 40.168 278.333 39.88 279.549 39.88H311.517C318.685 39.88 323.613 41.384 326.301 44.392C329.053 47.336 330.429 51.176 330.429 55.912V60.328C330.429 63.016 330.013 65.32 329.181 67.24C328.413 69.096 327.037 70.44 325.053 71.272C328.509 71.656 331.293 73.064 333.405 75.496C335.581 77.928 336.669 81.16 336.669 85.192V105.544C336.669 106.76 336.381 107.656 335.805 108.232C335.293 108.744 334.429 109 333.213 109H318.333C317.117 109 316.221 108.744 315.645 108.232C315.133 107.656 314.877 106.76 314.877 105.544V90.856C314.877 89.448 314.589 88.424 314.013 87.784C313.501 87.08 312.573 86.728 311.229 86.728H297.789V105.544C297.789 106.76 297.501 107.656 296.925 108.232C296.413 108.744 295.549 109 294.333 109ZM368.941 109H349.549C348.333 109 347.437 108.744 346.861 108.232C346.349 107.656 346.093 106.76 346.093 105.544V86.056C346.093 84.84 346.349 83.976 346.861 83.464C347.437 82.888 348.333 82.6 349.549 82.6H368.941C370.157 82.6 371.021 82.888 371.533 83.464C372.109 83.976 372.397 84.84 372.397 86.056V105.544C372.397 106.76 372.109 107.656 371.533 108.232C371.021 108.744 370.157 109 368.941 109ZM440.713 109H408.361C407.145 109 406.249 108.744 405.673 108.232C405.161 107.656 404.905 106.76 404.905 105.544V43.336C404.905 42.12 405.161 41.256 405.673 40.744C406.249 40.168 407.145 39.88 408.361 39.88H440.713C448.713 39.88 454.633 41.48 458.473 44.68C462.377 47.88 464.329 52.808 464.329 59.464V89.416C464.329 96.072 462.377 101 458.473 104.2C454.633 107.4 448.713 109 440.713 109ZM426.697 58.216V90.856H438.121C439.657 90.856 440.777 90.472 441.481 89.704C442.249 88.936 442.633 87.752 442.633 86.152V62.824C442.633 61.224 442.249 60.072 441.481 59.368C440.777 58.6 439.657 58.216 438.121 58.216H426.697ZM535.09 90.856C535.09 93.8 534.642 96.488 533.746 98.92C532.914 101.288 531.378 103.336 529.138 105.064C526.962 106.728 523.922 108.04 520.018 109C516.178 109.96 511.282 110.44 505.33 110.44C499.378 110.44 494.45 109.96 490.546 109C486.642 108.04 483.57 106.728 481.33 105.064C479.154 103.336 477.618 101.288 476.722 98.92C475.89 96.488 475.474 93.8 475.474 90.856V58.12C475.474 55.176 475.89 52.52 476.722 50.152C477.618 47.72 479.154 45.64 481.33 43.912C483.57 42.184 486.642 40.84 490.546 39.88C494.45 38.92 499.378 38.44 505.33 38.44C511.282 38.44 516.178 38.92 520.018 39.88C523.922 40.84 526.962 42.184 529.138 43.912C531.378 45.64 532.914 47.72 533.746 50.152C534.642 52.52 535.09 55.176 535.09 58.12V90.856ZM497.266 87.4C497.266 88.68 497.746 89.768 498.706 90.664C499.666 91.496 501.874 91.912 505.33 91.912C508.786 91.912 510.994 91.496 511.954 90.664C512.914 89.768 513.394 88.68 513.394 87.4V61.576C513.394 60.36 512.914 59.336 511.954 58.504C510.994 57.608 508.786 57.16 505.33 57.16C501.874 57.16 499.666 57.608 498.706 58.504C497.746 59.336 497.266 60.36 497.266 61.576V87.4ZM600.112 109H569.872C561.872 109 555.92 107.4 552.016 104.2C548.176 101 546.256 96.072 546.256 89.416V59.464C546.256 52.808 548.176 47.88 552.016 44.68C555.92 41.48 561.872 39.88 569.872 39.88H593.872C595.088 39.88 595.952 40.168 596.464 40.744C597.04 41.256 597.328 42.12 597.328 43.336V54.952C597.328 56.168 597.04 57.064 596.464 57.64C595.952 58.152 595.088 58.408 593.872 58.408H573.904C571.92 58.408 570.448 58.824 569.488 59.656C568.528 60.424 568.048 61.608 568.048 63.208V86.152C568.048 87.752 568.4 88.936 569.104 89.704C569.872 90.472 570.992 90.856 572.464 90.856H581.776V75.88C581.776 74.664 582.032 73.8 582.544 73.288C583.12 72.712 584.016 72.424 585.232 72.424H600.112C601.328 72.424 602.192 72.712 602.704 73.288C603.28 73.8 603.568 74.664 603.568 75.88V105.544C603.568 106.76 603.28 107.656 602.704 108.232C602.192 108.744 601.328 109 600.112 109ZM663.28 109H618.736C617.52 109 616.624 108.744 616.048 108.232C615.536 107.656 615.28 106.76 615.28 105.544V43.336C615.28 42.12 615.536 41.256 616.048 40.744C616.624 40.168 617.52 39.88 618.736 39.88H663.28C664.496 39.88 665.36 40.168 665.872 40.744C666.448 41.256 666.736 42.12 666.736 43.336V54.568C666.736 55.784 666.448 56.68 665.872 57.256C665.36 57.768 664.496 58.024 663.28 58.024H636.784V65.416H655.504C656.72 65.416 657.584 65.704 658.096 66.28C658.672 66.792 658.96 67.656 658.96 68.872V79.144C658.96 80.36 658.672 81.256 658.096 81.832C657.584 82.344 656.72 82.6 655.504 82.6H636.784V90.856H663.28C664.496 90.856 665.36 91.144 665.872 91.72C666.448 92.232 666.736 93.096 666.736 94.312V105.544C666.736 106.76 666.448 107.656 665.872 108.232C665.36 108.744 664.496 109 663.28 109Z" fill="white"/>
<defs>
<clipPath id="clip0_84_57">
<rect width="150" height="150" rx="20" fill="white"/>
</clipPath>
</defs>
</svg>
